# xmcd CD database file
#
# Track frame offsets:
#	150
#	12150
#	28275
#	43688
#	60900
#	79875
#	100575
#	126863
#	145725
#	160575
#	182438
#	197063
#	215625
#	226950
#
# Disc length: 3346 seconds
#
# Revision: 0
# Processed by: cddbd v1.5.1PL2 Copyright (c) Steve Scherf et al.
# Submitted via: CDex 1.51
#
DISCID=b20d100e
DTITLE=Various Artist - Together [ありがとう]
DYEAR=1993
DGENRE=フォーク
TTITLE0=井上陽水/夢の中へ
TTITLE1=加藤登紀子/この空を飛べたら
TTITLE2=小椋佳/少しは私に愛を下さい
TTITLE3=海援隊/恋不思議
TTITLE4=安全地帯/ワインレッドの心
TTITLE5=ＲＣサクセション/スローバラード
TTITLE6=泉谷しげる/春夏秋冬
TTITLE7=井上陽水/東へ西へ
TTITLE8=小椋佳/六月の雨
TTITLE9=加藤登紀子/百万本のバラ
TTITLE10=Ｃ−Ｃ−Ｂ/Romanticが止まらない
TTITLE11=海援隊/贈る言葉
TTITLE12=井上陽水/あどけない君のしぐさ
TTITLE13=来生たかお/Goodbye Day
EXTD=YEAR: 1993
EXTT0=
EXTT1=
EXTT2=
EXTT3=
EXTT4=
EXTT5=
EXTT6=
EXTT7=
EXTT8=
EXTT9=
EXTT10=
EXTT11=
EXTT12=
EXTT13=
PLAYORDER=
